<?xml version="1.0" standalone="no"?>
<!DOCTYPE svg PUBLIC "-//W3C//DTD SVG 20010904//EN"
 "http://www.w3.org/TR/2001/REC-SVG-20010904/DTD/svg10.dtd">
<svg version="1.0" xmlns="http://www.w3.org/2000/svg"
 width="300.000000pt" height="300.000000pt" viewBox="0 0 300.000000 300.000000"
 preserveAspectRatio="xMidYMid meet">
<metadata>
Created by potrace 1.14, written by Peter Selinger 2001-2017
</metadata>
<g transform="translate(0.000000,300.000000) scale(0.100000,-0.100000)"
fill="#000000" stroke="none">
<path d="M1270 2435 c0 -8 -4 -15 -10 -15 -5 0 -10 -4 -10 -9 0 -4 -25 -51
-55 -102 -30 -52 -60 -106 -66 -121 -6 -16 -15 -28 -21 -28 -5 0 -6 -5 -3 -10
3 -6 -1 -13 -10 -16 -9 -4 -14 -13 -11 -20 3 -8 1 -14 -4 -14 -5 0 -12 -9 -15
-20 -4 -11 -11 -18 -16 -14 -5 3 -8 2 -7 -3 1 -4 -4 -19 -11 -32 -11 -19 -11
-22 1 -16 10 6 10 5 1 -5 -6 -7 -9 -19 -6 -26 3 -8 0 -14 -7 -14 -16 0 -60
-51 -54 -62 3 -4 -2 -11 -10 -14 -9 -3 -13 -10 -10 -15 3 -5 0 -9 -6 -9 -6 0
-8 -4 -5 -10 3 -5 2 -10 -2 -10 -5 0 -14 -9 -21 -21 -10 -16 -11 -19 -1 -13 7
4 1 -8 -14 -28 -15 -19 -27 -40 -27 -46 0 -7 -4 -12 -10 -12 -5 0 -10 -7 -10
-15 0 -8 -5 -15 -11 -15 -5 0 -7 -4 -4 -10 3 -5 1 -10 -5 -10 -6 0 -9 -4 -6
-9 3 -5 -1 -14 -9 -21 -8 -7 -15 -19 -15 -26 0 -8 -4 -14 -10 -14 -5 0 -10 -6
-10 -14 0 -7 -7 -19 -15 -26 -8 -7 -12 -16 -10 -21 3 -4 -3 -12 -12 -18 -10
-5 -17 -11 -16 -13 6 -8 -10 -48 -19 -48 -5 0 -7 -4 -4 -9 3 -5 -1 -12 -10
-15 -8 -3 -13 -10 -10 -15 3 -4 -3 -16 -14 -26 -11 -10 -20 -26 -20 -35 0 -9
-9 -26 -20 -38 -12 -12 -18 -22 -15 -22 4 0 -3 -13 -14 -29 -12 -16 -21 -34
-21 -40 0 -6 -4 -11 -10 -11 -5 0 -10 -6 -10 -14 0 -7 -7 -19 -15 -26 -9 -7
-13 -15 -10 -18 3 -3 -1 -12 -9 -21 -7 -9 -26 -41 -42 -71 -16 -30 -34 -61
-41 -68 -28 -29 -5 -37 115 -37 66 0 120 4 124 10 5 7 8 6 8 -1 0 -12 49 -12
68 0 7 4 12 3 12 -1 0 -5 13 -9 30 -9 17 -1 27 2 24 8 -4 6 4 4 17 -2 17 -10
24 -10 27 -1 2 6 9 8 14 4 18 -10 68 -12 68 -1 0 5 8 5 18 -1 13 -7 23 -6 30
1 7 7 12 8 12 3 0 -6 22 -10 49 -10 29 -1 47 3 44 9 -4 5 -1 6 8 0 19 -12 42
-11 51 1 5 7 8 6 8 -1 0 -12 49 -12 68 0 7 4 12 4 12 -1 0 -4 22 -8 49 -8 27
0 47 3 44 8 -3 5 5 3 18 -3 17 -10 24 -10 27 -1 2 6 8 8 14 5 18 -11 158 -10
158 1 0 7 3 7 8 0 10 -14 52 -15 52 -1 0 7 3 7 8 1 9 -13 145 -13 154 0 5 7 8
7 8 0 0 -6 18 -10 40 -10 22 0 40 4 40 9 0 4 7 3 15 -4 12 -10 15 -10 15 1 0
9 3 10 8 4 4 -6 52 -10 107 -10 55 0 103 4 107 10 5 7 8 7 8 0 0 -6 30 -10 69
-10 38 0 67 4 64 8 -3 5 5 3 18 -3 17 -10 24 -10 27 -1 2 6 9 8 15 4 18 -11
177 -9 177 2 0 7 3 7 8 0 11 -15 32 -17 32 -3 0 9 4 8 10 -2 7 -11 10 -11 10
-2 0 7 4 10 10 7 12 -8 -51 97 -65 107 -5 4 -6 10 -3 14 4 3 -1 14 -10 25 -9
10 -28 40 -42 66 -13 26 -27 50 -30 53 -3 3 -16 25 -29 50 -14 25 -27 47 -30
50 -14 12 -40 68 -34 74 3 3 1 6 -6 6 -7 0 -9 5 -6 10 3 6 -1 10 -9 10 -14 0
-21 19 -17 43 1 5 -2 6 -7 3 -5 -3 -15 10 -22 29 -8 19 -18 35 -22 35 -5 0 -7
4 -3 9 3 6 -3 14 -12 20 -10 6 -14 11 -9 11 6 0 2 6 -8 13 -9 7 -18 22 -19 35
0 12 -5 22 -9 22 -4 0 -8 5 -8 10 0 6 -12 29 -27 53 -15 23 -26 45 -25 50 1 4
-3 7 -9 7 -5 0 -7 5 -4 10 3 6 2 10 -3 10 -5 0 -15 14 -22 30 -7 17 -17 30
-22 30 -5 0 -7 4 -4 9 3 4 -3 16 -13 25 -16 15 -19 14 -32 -10 -12 -23 -11
-27 3 -38 13 -9 17 -28 17 -75 0 -35 2 -65 5 -68 7 -7 -54 -93 -66 -93 -5 0
-6 -4 -3 -10 3 -5 0 -7 -8 -4 -9 3 -13 13 -9 27 5 21 4 21 -14 6 -12 -11 -26
-14 -38 -10 -21 8 -42 -8 -71 -53 -10 -14 -21 -23 -27 -20 -5 3 -7 8 -4 12 3
3 -2 11 -12 19 -10 9 -11 11 -2 7 13 -7 13 -6 0 12 -8 10 -18 21 -21 24 -3 3
-17 28 -31 57 -14 29 -28 49 -32 46 -6 -6 -10 12 -7 30 0 4 -3 7 -9 7 -5 0
-10 7 -10 15 0 8 -4 15 -10 15 -5 0 -10 9 -10 20 0 11 -4 20 -8 20 -4 0 -19
21 -33 47 -13 25 -28 55 -34 65 -5 10 -16 18 -23 18 -7 0 -11 4 -8 9 7 10 -16
71 -26 71 -4 0 -8 9 -8 21 0 11 -4 18 -8 15 -5 -3 -14 11 -21 30 -7 18 -17 34
-22 34 -5 0 -9 6 -9 13 0 7 -8 22 -18 33 -10 11 -17 24 -15 30 2 5 -5 19 -16
31 -11 11 -17 24 -14 27 4 3 2 6 -4 6 -6 0 -13 8 -16 18 -6 17 -39 75 -67 120
-17 25 -30 29 -30 7z"/>
<path d="M1740 2399 c0 -3 -14 -3 -31 -1 -24 4 -30 2 -24 -8 6 -10 4 -12 -7
-7 -10 3 -31 -8 -55 -31 -51 -48 -63 -74 -68 -154 -2 -27 0 -48 4 -48 4 0 8
-7 8 -14 0 -21 46 -86 61 -86 6 0 12 -4 12 -10 0 -5 7 -10 15 -10 8 0 15 -5
15 -11 0 -5 4 -8 9 -4 5 3 12 1 16 -5 4 -6 11 -8 16 -5 5 4 9 3 9 -2 0 -4 14
-8 30 -8 17 0 30 3 30 6 0 4 8 6 18 6 21 -1 105 34 98 41 -3 2 6 13 19 24 14
11 23 23 20 28 -3 5 0 10 7 12 18 6 33 134 16 144 -4 3 -8 13 -8 23 0 9 -10
28 -22 41 -13 14 -22 28 -20 32 2 7 -4 9 -23 8 -3 -1 -13 6 -21 15 -9 8 -24
15 -35 15 -11 0 -18 3 -16 8 3 4 -12 7 -34 7 -21 0 -39 -3 -39 -6z"/>
<path d="M549 933 c-13 -3 -15 -23 -15 -125 l1 -122 32 -1 c17 0 29 3 26 7 -7
13 -7 194 1 207 4 6 2 11 -4 11 -6 0 -9 4 -6 9 7 11 -13 19 -35 14z"/>
<path d="M691 928 c-26 -9 -72 -54 -64 -62 3 -2 1 -10 -3 -17 -10 -17 -12 -59
-2 -65 4 -3 5 -11 1 -19 -3 -8 0 -15 7 -15 6 0 8 -4 5 -10 -3 -5 -1 -10 4 -10
6 0 11 -7 11 -15 0 -14 52 -33 73 -27 4 1 7 -2 7 -8 0 -6 9 -6 23 -1 12 4 30
7 40 5 9 -1 15 1 12 5 -2 5 7 13 20 19 25 11 35 42 14 42 -5 0 -8 4 -5 9 11
16 -26 5 -39 -12 -7 -9 -15 -14 -18 -10 -4 3 -7 1 -7 -6 0 -7 -4 -9 -10 -6 -5
3 -10 0 -10 -7 0 -10 -2 -10 -9 1 -5 7 -13 11 -17 9 -11 -6 -45 28 -36 36 3 3
1 6 -5 6 -16 0 -13 51 5 88 11 25 20 32 34 29 10 -3 15 -1 12 5 -12 19 41 -4
58 -25 13 -17 19 -19 30 -9 8 6 18 9 21 5 4 -3 7 4 7 16 0 12 -4 19 -10 16 -5
-3 -10 1 -10 10 0 9 -4 14 -9 11 -5 -4 -11 -1 -13 4 -4 14 -86 20 -117 8z"/>
<path d="M930 932 c-29 -10 -48 -38 -46 -68 2 -41 21 -59 84 -74 63 -15 83
-40 49 -62 -14 -10 -31 -12 -49 -7 -15 4 -30 4 -33 0 -4 -3 -5 1 -3 9 2 8 -3
14 -10 12 -8 -1 -11 2 -8 7 4 5 2 12 -4 16 -5 3 -10 2 -10 -3 0 -5 -10 -12
-21 -15 -21 -6 -21 -7 7 -35 21 -21 37 -28 62 -27 18 0 36 -3 38 -7 3 -4 13
-4 22 1 9 5 19 9 22 8 12 -2 38 20 49 41 13 25 6 62 -11 62 -6 0 -9 3 -5 6 11
11 -17 31 -37 26 -10 -3 -17 -1 -13 4 3 6 -10 9 -29 9 -23 -1 -34 3 -34 12 0
8 -4 11 -10 8 -5 -3 -10 -1 -10 5 0 35 75 53 85 20 3 -10 14 -16 28 -14 12 1
25 3 29 3 10 1 -3 33 -19 50 -14 13 -96 22 -123 13z"/>
<path d="M1172 927 c-12 -6 -22 -14 -22 -19 0 -5 -4 -6 -10 -3 -5 3 -12 -6
-16 -20 -3 -14 -11 -25 -18 -25 -6 0 -4 -5 4 -10 11 -7 12 -10 2 -10 -8 0 -12
-6 -9 -12 2 -7 1 -20 -4 -29 -6 -11 -4 -21 6 -29 8 -7 12 -16 9 -21 -3 -5 0
-9 5 -9 6 0 11 -6 11 -13 0 -17 50 -45 72 -42 10 2 20 -1 24 -6 3 -5 12 -5 23
1 10 5 21 6 25 3 3 -4 13 2 21 13 8 10 15 15 15 11 0 -5 6 -2 14 5 15 15 31
58 27 72 -1 5 4 13 11 17 7 5 8 9 3 9 -6 0 -12 12 -13 27 -1 15 -8 30 -15 35
-6 4 -8 8 -2 8 5 0 -3 12 -18 26 -31 28 -104 39 -145 21z m69 -37 c0 10 2 11
6 2 2 -6 8 -10 13 -7 4 3 13 -2 20 -10 16 -19 24 -115 10 -115 -5 0 -9 -6 -7
-12 1 -8 -7 -13 -20 -12 -12 0 -20 -3 -18 -7 3 -4 -2 -10 -11 -13 -8 -3 -12
-2 -9 4 4 6 -5 10 -20 10 -15 0 -24 4 -20 10 3 6 2 10 -3 10 -13 0 -32 69 -21
76 5 3 7 10 4 15 -4 5 -1 9 5 9 6 0 9 4 6 9 -3 5 1 14 9 21 8 7 15 9 15 4 0
-4 5 -3 12 4 9 9 14 9 20 -1 6 -9 8 -8 9 3z"/>
<path d="M1391 930 c-10 -7 -9 -233 2 -241 4 -3 44 -5 88 -4 70 1 84 4 105 24
30 29 31 59 1 86 -13 11 -18 17 -11 12 8 -5 10 0 6 18 -2 14 0 25 6 25 6 0 9
8 7 18 -2 9 -4 23 -4 30 -1 6 -7 12 -15 12 -8 0 -16 5 -18 11 -4 11 -153 19
-167 9z m124 -40 c16 0 26 -25 19 -45 -7 -18 -73 -17 -92 2 -10 9 -10 13 -1
13 9 0 9 3 0 14 -10 12 -8 14 13 12 16 -2 23 1 19 7 -4 6 0 8 11 4 10 -4 24
-7 31 -7z m-7 -101 c39 -3 42 -5 42 -31 0 -26 -7 -31 -36 -27 -4 0 -11 -5 -15
-13 -7 -11 -9 -11 -9 0 0 9 -7 11 -20 7 -14 -5 -20 -2 -20 9 0 9 -4 16 -8 16
-5 0 -9 7 -9 15 0 8 4 12 9 9 4 -3 8 2 8 11 0 9 4 14 8 11 5 -3 27 -6 50 -7z"/>
<path d="M1761 922 c-17 -8 -31 -20 -31 -27 0 -8 -6 -16 -12 -18 -7 -3 -3 -6
10 -7 12 -2 28 -3 35 -4 6 -1 18 6 25 16 18 25 53 7 47 -24 -5 -24 -40 -60
-49 -51 -3 4 -6 2 -6 -4 0 -6 -13 -25 -29 -42 -28 -30 -46 -70 -33 -72 29 -6
172 -3 174 3 4 23 2 33 -7 33 -5 0 -16 4 -22 8 -7 5 -13 5 -13 0 0 -4 -13 -8
-30 -8 -34 -1 -36 3 -14 31 8 10 12 12 8 4 -5 -8 10 3 32 25 22 22 38 46 36
53 -2 6 0 12 6 12 15 0 9 33 -10 51 -10 9 -15 19 -11 23 3 3 -2 7 -13 7 -10 1
-29 3 -41 4 -12 1 -35 -4 -52 -13z"/>
<path d="M1970 932 c-21 -7 -40 -28 -33 -36 4 -3 1 -6 -5 -6 -7 0 -11 -3 -11
-7 1 -5 0 -10 -1 -13 -6 -14 -4 -128 2 -124 5 3 8 -3 8 -13 0 -17 40 -62 40
-45 0 4 5 0 10 -8 5 -8 10 -10 10 -4 0 5 12 9 28 8 15 -1 33 5 40 12 7 8 10
14 6 14 -4 0 -1 8 8 18 8 9 14 29 13 45 0 15 3 27 8 27 4 0 5 6 0 13 -4 6 -8
23 -9 37 -1 14 -3 26 -4 28 -1 1 -3 6 -4 10 -5 32 -66 57 -106 44z m61 -61 c9
-113 2 -151 -30 -151 -33 0 -50 130 -21 161 18 19 50 13 51 -10z"/>
<path d="M2165 933 c-51 -13 -78 -73 -31 -68 32 4 48 14 41 26 -8 11 -3 11 30
-1 21 -8 24 -13 16 -29 -6 -10 -8 -21 -5 -24 3 -3 -4 -8 -15 -12 -12 -3 -19
-11 -16 -16 4 -5 2 -9 -4 -9 -6 0 -24 -13 -41 -30 -17 -16 -28 -30 -24 -30 3
0 1 -6 -5 -14 -6 -7 -9 -20 -6 -27 7 -18 175 -22 175 -5 -1 25 -18 35 -53 33
-43 -4 -71 8 -44 19 9 3 17 12 17 20 0 8 3 13 8 13 17 -3 32 2 30 9 -2 4 10
20 26 35 16 15 24 27 18 27 -6 0 -9 9 -7 20 8 41 -55 77 -110 63z"/>
<path d="M2347 931 c-8 -4 -25 -18 -36 -32 l-21 -27 28 -5 c15 -3 29 -1 30 4
2 5 9 6 15 2 6 -4 8 0 4 9 -4 13 -1 15 21 9 25 -7 28 -14 23 -51 0 -5 -18 -21
-38 -35 -21 -14 -34 -25 -29 -25 5 0 -3 -11 -17 -24 -14 -13 -23 -27 -20 -30
4 -3 -2 -6 -13 -6 -16 0 -17 -2 -4 -10 8 -5 11 -10 5 -10 -5 -1 -1 -5 10 -9
16 -6 128 -8 168 -2 4 1 3 9 -2 20 -6 10 -7 22 -3 26 4 5 2 5 -5 1 -23 -13
-93 -15 -90 -3 2 13 23 37 31 37 3 0 15 9 26 20 11 11 17 20 13 20 -4 0 2 7
13 15 10 8 15 15 10 15 -5 0 -3 7 4 15 7 9 8 15 2 15 -5 0 -8 9 -5 20 4 14 0
20 -10 20 -8 0 -17 5 -19 12 -4 12 -65 18 -91 9z"/>
</g>
</svg>
